<?xml version="1.0" encoding="utf-8"?>
<!-- Generator: Adobe Illustrator 15.1.0, SVG Export Plug-In  -->
<!DOCTYPE svg PUBLIC "-//W3C//DTD SVG 1.1//EN" "http://www.w3.org/Graphics/SVG/1.1/DTD/svg11.dtd" [
	<!ENTITY ns_flows "http://ns.adobe.com/Flows/1.0/">
]>
<svg version="1.1"
	 xmlns="http://www.w3.org/2000/svg" xmlns:xlink="http://www.w3.org/1999/xlink" xmlns:a="http://ns.adobe.com/AdobeSVGViewerExtensions/3.0/"
	 x="0px" y="0px" width="354px" height="213px" viewBox="-18.168 -63.571 354 213" enable-background="new -18.168 -63.571 354 213"
	 xml:space="preserve">
<defs>
</defs>
<polygon display="none" points="19.868,11.78 24.728,11.78 24.728,29.931 12.212,29.931 12.212,11.78 17.07,11.78 17.07,9.611 
	0.531,9.611 0.531,11.78 5.389,11.78 5.389,51.484 0.531,51.484 0.531,53.656 17.07,53.656 17.07,51.484 12.212,51.484 12.212,32.1 
	24.728,32.1 24.728,51.484 19.868,51.484 19.868,53.656 36.409,53.656 36.409,51.484 31.55,51.484 31.55,11.78 36.409,11.78 
	36.409,9.611 19.868,9.611 "/>
<path display="none" d="M57.83,49.837c-0.312,0.416-1.048,1.391-1.5,1.391c-0.419,0-0.907-0.254-0.907-0.967V32.936
	c0-2.148-0.506-3.249-1.935-4.197c-1.736-1.181-3.962-1.805-6.435-1.805c-3.122,0-8.075,1.895-8.075,6.979
	c0,2.459,1.52,3.333,2.822,3.333c1.268,0,2.626-1.262,2.626-3.138c0-1.226-0.375-2.646-0.725-3.265
	c-0.138-0.23-0.136-0.461,0.003-0.705c0.413-0.725,1.908-1.361,3.201-1.361c0.817,0,2.969,0.638,2.969,2.073v7.854
	c-0.265-0.016-0.536-0.021-0.81-0.021c-5.286,0-11.461,2.452-11.461,9.362c0,4.063,2.06,6.588,5.376,6.588
	c2.601,0,5.173-1.537,6.999-4.146c0.466,2.611,1.928,4.146,3.997,4.146c2.373,0,3.754-1.723,4.893-3.58l0.088-0.145l-0.894-1.381
	L57.83,49.837z M46.218,50.9c-2.415,0-2.921-2.58-2.921-4.746c0-4.758,3.456-5.482,6.578-5.521v3.311c0,1.146-0.04,2.34-0.333,3.314
	C49.044,49.017,47.908,50.9,46.218,50.9z"/>
<path display="none" d="M83.3,39.708c0-0.459,0.003-0.919,0.005-1.375c0.024-4.055,0.048-7.879-1.965-9.905
	c-1-1.006-2.405-1.495-4.3-1.495c-3.178,0-5.467,1.728-7.141,5.415v-5.296l-0.282,0.012c-0.811,0.035-1.62,0.08-2.413,0.123
	c-1.638,0.088-3.185,0.172-4.629,0.172c-0.535,0-1.018-0.011-1.472-0.033l-0.286-0.016v2.184h3.339v21.992h-3.338v2.172h12.174
	v-2.172h-3.09v-8.324c0-3.096,0-6.02,0.626-8.127c0.784-2.563,2.681-5.213,4.503-5.213c0.637,0,1.125,0.181,1.49,0.549
	c1.114,1.126,1.086,3.967,1.051,7.566c-0.006,0.673-0.014,1.375-0.014,2.1v11.451h-3.092v2.17h11.929v-2.17h-3.092V39.71H83.3
	V39.708z"/>
<path display="none" d="M96.93,36.384c-4.451-0.984-4.451-1.688-4.451-3.382c0-2.772,1.864-4.224,3.706-4.224
	c2.714,0,4.615,3.318,4.884,6.525l0.021,0.247h1.795v-8.226h-1.277l-0.7,1.507c-1.354-1.229-3.019-1.899-4.722-1.899
	c-3.923,0-6.455,3.225-6.455,8.215c0,5.35,2.15,8.02,7.191,8.93l0.175,0.029c2.464,0.439,4.412,0.785,4.412,3.74
	c0,3.092-2.133,4.939-4.197,4.939c-3.712,0-5.516-4.52-5.965-8.748L91.32,43.8h-1.839v9.852h1.185l1.297-1.602
	c1.296,1.488,3.349,2.578,4.907,2.578c4.837,0,7.289-3.115,7.289-9.258C104.16,38.464,101.427,37.367,96.93,36.384z"/>
<path display="none" d="M125.073,45.187c-1.022,4.619-3.75,7.604-6.951,7.604c-3.794,0-4.097-3.723-4.097-8.586v-4.941h11.216
	c0.088,0,0.172,0.004,0.254,0.006c0.076,0.004,0.147,0.006,0.215,0.006c0.76,0,1.029-0.381,1.029-1.456
	c0-5.351-3.389-10.884-9.058-10.884c-5.347,0-10.039,6.519-10.039,13.947c0,8.225,4.911,13.752,9.497,13.752
	c5.179,0,8.438-3.141,9.688-9.332l0.065-0.326h-1.772L125.073,45.187z M117.389,28.779c1.033,0,1.788,0.26,2.309,0.792
	c1.114,1.146,1.051,3.479,0.985,5.951c-0.013,0.521-0.028,1.045-0.033,1.571h-6.625c-0.002-0.276-0.003-0.557-0.006-0.835
	c-0.025-2.663-0.052-5.416,1.224-6.704C115.76,29.033,116.461,28.779,117.389,28.779z"/>
<path display="none" d="M151.474,39.708c0-0.459,0.003-0.919,0.007-1.375c0.023-4.055,0.046-7.879-1.967-9.905
	c-1-1.006-2.407-1.495-4.301-1.495c-3.178,0-5.467,1.728-7.141,5.415v-5.297l-0.283,0.011c-0.812,0.035-1.619,0.081-2.412,0.123
	c-1.639,0.088-3.187,0.173-4.631,0.173c-0.535,0-1.019-0.012-1.473-0.033l-0.285-0.016v2.185h3.338v21.992h-3.338v2.172h12.174
	v-2.172h-3.09v-8.324c0-3.096,0-6.02,0.625-8.127c0.782-2.563,2.682-5.213,4.504-5.213c0.637,0,1.125,0.181,1.489,0.549
	c1.114,1.126,1.085,3.966,1.052,7.562c-0.007,0.675-0.016,1.376-0.016,2.105v11.449h-3.091v2.172h11.928v-2.172h-3.093V39.708
	H151.474z"/>
<path display="none" d="M204.978,12.603c-2.705-2.207-5.523-2.99-10.771-2.99h-13.771v2.171h4.813v39.703h-4.813v2.172h13.172
	c4.1,0,7.764-0.199,11.113-2.656c4.883-3.58,7.916-11,7.916-19.367C212.636,23.394,209.915,16.636,204.978,12.603z M205.372,30.007
	c0,4.07-0.141,9.303-1.225,13.676c-1.801,7.283-5.123,7.811-10.387,7.811l-1.691-0.008V11.78c5.598,0.016,8.799,0.485,10.658,2.893
	C204.007,16.312,205.372,21.202,205.372,30.007z"/>
<path display="none" d="M229.085,29.495h3.441l-4.322,14.667l-5.047-14.667h3.031v-2.169h-11.781v2.169h2.482l8.553,23.907
	c-0.588,2.598-1.447,5.203-2.137,7.191c-0.854,2.547-1.227,3.133-1.338,3.254c-0.039-0.059-0.088-0.156-0.119-0.221
	c-0.037-0.076-0.076-0.152-0.119-0.227c-0.783-1.246-1.297-1.689-2.633-1.689c-1.521,0-2.625,1.51-2.625,3.594
	c0,1.912,1.387,3.592,2.969,3.592c3.484,0,5.473-6.643,6.543-10.225l8.58-29.175h2.77v-2.169h-8.248V29.495L229.085,29.495z"/>
<path display="none" d="M245.825,36.384c-4.453-0.984-4.453-1.688-4.453-3.382c0-2.772,1.865-4.224,3.707-4.224
	c2.715,0,4.613,3.318,4.885,6.525l0.02,0.247h1.795v-8.226h-1.277l-0.697,1.507c-1.357-1.229-3.02-1.899-4.723-1.899
	c-3.924,0-6.455,3.225-6.455,8.215c0,5.35,2.15,8.02,7.191,8.93l0.178,0.029c2.463,0.439,4.406,0.785,4.406,3.74
	c0,3.092-2.129,4.939-4.193,4.939c-3.713,0-5.516-4.52-5.965-8.748l-0.025-0.238h-1.838v9.852h1.182l1.301-1.602
	c1.295,1.488,3.348,2.578,4.904,2.578c4.836,0,7.287-3.115,7.287-9.258C253.054,38.464,250.323,37.367,245.825,36.384z"/>
<polygon display="none" points="268.632,29.495 271.919,29.495 267.091,44.595 262.54,29.495 265.538,29.495 265.538,27.326 
	253.856,27.326 253.856,29.495 256.431,29.495 264.384,54.632 266.056,54.632 273.958,29.495 276.679,29.495 276.679,27.326 
	268.632,27.326 "/>
<path display="none" d="M284.067,19.53c1.807,0,3.166-1.798,3.166-4.178c0-2.168-1.672-3.788-3.166-3.788
	c-1.475,0-2.922,1.876-2.922,3.788C281.144,17.328,282.345,19.53,284.067,19.53z"/>
<path display="none" d="M287.382,27.053l-0.283,0.012c-0.754,0.034-1.506,0.075-2.256,0.116c-1.635,0.089-3.318,0.18-4.945,0.18
	c-0.59,0-1.131-0.012-1.658-0.033l-0.281-0.015v2.183h3.58v21.991h-3.58v2.172h13.057v-2.172h-3.633V27.053L287.382,27.053z"/>
<path display="none" d="M315.683,51.484l-9.055-15.335l5.201-6.654h4.461v-2.169h-11.094v2.169h3.785l-7.516,9.53V8.56l-0.336,0.082
	c-3.121,0.773-5.938,1.091-8.756,0.97L292.091,9.6v2.181h3.533v39.704h-3.143v2.172h12.025v-2.172h-3.043V39.05l7.354,12.434h-2.592
	v2.172h11.486v-2.172H315.683L315.683,51.484z"/>
<path display="none" d="M176.292,34.245h-2.59l-2.457,4.777l-2.781-2.742c2.047-0.868,3.221-2.329,3.24-4.057
	c-0.023-2.462-2.045-4.412-4.609-4.436c-2.076,0.022-4.391,1.714-4.391,4.104c0,1.627,0.768,2.653,1.682,3.6
	c-1.795,0.969-3.779,2.645-3.779,5.313c0,3.158,2.57,5.729,5.73,5.729c2.379,0,4.127-1.195,5.48-3.754l3.951,3.857l1.658-1.563
	l-4.516-4.395L176.292,34.245z M165.009,32.014c0-1.138,0.939-1.993,2.184-1.993c1.043,0,2.209,0.841,2.209,1.968
	c0,1.072-0.896,1.945-2.668,2.598l-0.051-0.048C165.935,33.845,165.009,32.981,165.009,32.014z M166.151,44.302
	c-1.727,0-3.238-1.566-3.238-3.354c0-1.426,0.813-2.467,2.645-3.382l0.586-0.312l3.961,3.868c-0.842,1.633-1.855,3.178-3.863,3.178
	l-0.047,0.271l0.004-0.271h-0.047V44.302L166.151,44.302z"/>
<polygon display="none" fill="#6C1C73" points="208.073,66.785 0,66.785 0,61.824 209.286,61.824 "/>
<polygon display="none" fill="#6C1C73" points="317.995,66.785 231.919,66.785 233.132,61.824 317.995,61.824 "/>
<path d="M255.237,36.05c-0.398-0.683-1.083-1.366-1.879-1.31c-5.354-0.626-10.366,1.937-13.155,6.605
	c-3.417,5.355,0.911,10.65,2.392,15.548c0.455,1.48,1.481,2.79,1.196,4.498c-0.513,1.253-1.708,1.88-3.019,1.993
	c-1.993-0.058-3.303-1.822-4.044-3.417c-0.341-1.082,0.229-2.562-0.74-3.36c-1.366,0.685-2.562,2.107-3.815,3.075
	c-0.398,0.114-0.967,0.627-1.194,0c1.081-8.372,3.586-16.287,6.093-24.09l-0.228-0.227l-6.036,0.341l-0.456,0.227l-2.905,10.479
	c-1.479,4.727-4.556,8.828-8.257,12.643c-0.285,0.171-0.626,0.741-0.911,0.284c-0.171-1.593,0.456-3.018,0.74-4.555
	c1.083-5.41,4.101-10.479,2.905-16.401c-0.685-0.969-0.685-2.906-2.278-2.734l-6.948,5.809c-0.17,0.284,0.057,0.512,0.057,0.741
	c0.854,0.569,1.48-0.798,2.335-0.798c0.514,0,0.457,0.513,0.57,0.854c-0.113,5.01-2.277,9.283-3.36,13.896
	c-1.367,1.082-1.938,3.132-3.702,3.587c-0.513-0.284-0.683-0.91-0.683-1.48c0.056-4.214,1.366-7.915,2.278-11.788
	c0.797-3.646,1.651-8.657-1.823-11.105c-0.513-0.057-1.083,0.056-1.537,0.398c-3.932,4.043-7.519,8.542-9.511,13.497l-0.627,0.398
	c-0.057-0.114-0.171-0.228-0.114-0.398c2.678-8.371,4.556-17.084,7.461-25.399l0.456-0.684c3.473-1.195,6.891-2.447,9.908-4.67
	c5.524-3.815,8.942-9.681,8.144-16.344C221.409,0.227,219.303,0,217.254,0c-7.291,1.879-12.303,9.168-15.662,15.434
	c-0.625,1.31-1.082,2.734-1.936,3.872c-2.962,0-5.924,0.057-8.429-0.854l-4.271,2.449c-0.627,0.399-1.425,0.854-1.767,1.538
	c2.963,3.474,8.144,2.791,12.244,2.449l0.172,0.228c-4.614,13.383-7.347,27.507-9.91,41.744c-0.057,0.282,0.228,0.397,0.457,0.34
	c1.536-0.796,3.7-0.113,5.238-0.796c0.797-7.46,2.961-14.294,6.777-20.445c0.91-1.367,1.707-3.474,3.645-3.758
	c0.283,0.171,0.512,0.513,0.627,0.854c-0.627,4.955-2.05,9.567-2.963,14.407c-0.683,3.645,0.798,6.72,3.247,9.17
	c0.514,0.284,0.627-0.399,1.081-0.57c1.767-2.507,3.76-4.955,5.811-7.29l0.228,0.172c-0.171,2.847,0.513,5.41,2.05,7.631
	c0.513,0.399,1.024-0.114,1.48-0.341c4.669-4.329,7.859-9.282,11.049-14.351l0.228-0.058v0.398c-1.993,3.816-3.133,8.6-1.595,12.985
	c0.399,0.626,0.57,1.651,1.424,1.765c1.937-1.425,3.359-3.475,5.239-5.183c0.284,1.025,0.284,2.107,0.854,3.018
	c0.569,1.141,1.764,1.651,2.847,1.937c5.182,0.399,9.967-1.937,12.927-6.32c4.499-5.866-1.082-11.731-2.904-17.085
	c-0.397-1.31-1.366-2.96-0.227-4.215c0.455-0.284,0.968-0.569,1.65-0.456c2.563-0.283,3.987,2.108,6.437,2.166
	c0.568-0.114,1.196-0.286,1.479-0.855C255.579,38.841,255.579,37.304,255.237,36.05z M208.596,11.62
	c1.197-2.677,3.53-5.979,6.835-6.036c1.709-0.114,3.304,0.284,4.385,1.424c0.342,3.587-1.709,6.604-4.671,8.598
	c-2.676,1.879-5.808,2.904-9.168,3.189C206.488,16.346,207.571,13.955,208.596,11.62z"/>
<path d="M65.769,15.094c0.513,2.05-1.082,3.758-1.822,5.581c-0.342,0.456-0.456,1.196-1.083,1.366
	c-0.113-1.822-2.106-2.278-3.417-2.677c-6.492-1.423-8.827,6.037-11.618,9.91c-2.734,4.613-5.012,9.51-9.055,13.44
	c-0.684-0.057-0.797,0.797-1.367,0.854c-0.626,0.172-1.196,0.455-1.709,0.911c2.563,7.403,6.892,19.591,11.219,26.253
	c3.189,5.296,8.599,8.6,14.921,8.087c3.417-0.399,7.916,0.113,9.226-3.645v-0.911h0.398c1.424,1.823,2.107,3.986,2.05,6.379
	c-0.456,2.22-2.848,2.447-4.556,3.018c-9.056,1.252-16.857-2.676-23.634-8.029c-3.531-2.963-7.916-11.618-9.852-15.491
	c-2.221-4.271-3.474-8.883-6.265-12.927c-0.569-0.569-1.481-0.684-2.165-0.341l-0.854,0.91c-1.937,5.353-3.247,10.99-5.752,16.061
	l0.341,0.283c3.132,0.114,6.834,1.651,9.625-0.283h0.284c-0.569,1.196-1.139,2.904-2.619,3.247
	c-5.866,1.081-11.788-1.425-17.427,0.34c-0.227-0.512,0.057-1.195,0.342-1.65c2.506-1.481,4.5-3.931,5.183-6.664
	c2.961-10.421,6.378-20.615,9.738-30.864c0.114-0.342,0.057-0.742,0.057-1.083l-0.627-0.34c-6.093-0.684-12.073,0.568-17.312,2.848
	c-1.993,1.082-4.271,2.903-4.157,5.41c0.171,4.955,1.594,9.396,4.897,13.042c0.854,0.682,1.823,1.195,3.019,1.023
	c-0.912,1.653-2.677,3.132-4.499,3.703c-2.563,0.341-4.158-2.278-5.296-4.158c-2.734-6.036-1.937-14.067,2.506-19.078
	c8.258-7.859,20.217-6.72,30.695-9.169l0.171,0.114l-0.855,2.62l-6.435,18.338c-0.228,1.082-0.912,2.164-0.741,3.246
	c5.524-0.17,9.853-5.181,11.902-9.795c4.785-8.827,11.675-20.388,22.894-21.527C63.491,13.555,65.086,13.67,65.769,15.094z"/>
<path d="M60.017,35.936c1.595,3.987-0.626,7.632-1.538,11.333l0.114,0.171c1.651-2.052,2.335-4.727,3.93-6.947
	c1.481-2.107,2.677-4.442,5.125-5.695c0.74-0.057,1.311,0.625,1.595,1.196c0.626,2.05,1.253,4.955-0.284,6.778
	c-1.196,1.366-2.392,2.79-4.101,3.701c-0.911-0.398-0.456-1.765-1.31-2.278c-0.854-0.171-1.765,0.399-2.107,1.196
	c-3.815,6.266-5.125,13.611-6.776,20.844l-0.513,0.513c-2.165,0.228-4.727-0.343-6.606,0.569c-0.456-0.114-0.057-0.569-0.057-0.854
	c2.905-7.46,5.069-15.148,6.208-23.348c-0.171-0.798,0.114-2.051-0.968-2.278l-4.158-0.398l0.684-0.685
	c3.247-1.537,5.752-4.328,9.283-5.068C59.391,34.456,59.619,35.48,60.017,35.936z"/>
<path d="M317.368,30.298c-0.284-2.734-2.849-4.897-5.354-5.695c-3.075-0.512-5.752,0.798-7.632,3.303
	c-1.083,1.025-2.791,0.342-4.044,0.797c-2.79,0.57-5.523,2.278-7.005,4.727c-2.392,0.569-5.011,0.854-6.548,3.189
	c-1.651,1.481-1.48,3.701-1.424,5.752c0.513,0.568,0.342,1.368,0.683,2.05c0.912,1.708,2.051,3.416,3.588,4.727
	c0.513,0.685,1.424,0.798,1.709,1.538l2.392,1.252c2.619,1.537,5.865,2.507,9.112,1.766l0.171,0.227
	c-4.271,6.835-12.074,7.745-19.477,8.202c-2.961-0.113-6.151,0.171-8.6-1.31c-0.74-0.628-0.74-1.537-0.683-2.449
	c1.195-6.833,2.562-13.554,4.669-20.045c1.48-0.399,3.418-0.057,4.271-1.765c0.172-0.455,0.57-0.969,0.229-1.48
	c-1.139,0.512-2.677,0.569-3.93,0.227c1.423-9.853,6.094-18.508,11.446-26.767l0.113-0.625c-1.366-0.513-1.992,1.082-2.96,1.708
	c-2.62,2.22-3.702,5.296-5.694,7.858c-4.5,6.322-5.524,14.466-11.903,19.819l-0.113,0.398c0.627,0.57,1.88-0.055,2.164,0.798
	c-1.368,4.728-2.336,9.624-3.646,14.352c-0.683,3.815-2.902,8.825,0.058,12.301c2.563,2.79,6.548,2.904,10.308,2.619
	c9.226-1.254,18.337-4.215,24.316-11.959c1.082-1.196,1.196-3.132,2.961-3.759c2.506-1.65,4.271-4.385,5.695-7.005
	c1.139-2.05,0.797-4.555,1.139-6.89C315.432,36.107,318.223,33.773,317.368,30.298z M303.474,52.281
	c-1.653,0.74-3.418,0.342-5.126,0.342c-3.188-0.685-6.149-2.449-8.428-4.728c-0.513-0.626-1.424-1.196-1.481-2.05
	c-1.764-1.538-2.106-3.986-1.879-6.208l0.854-1.823c3.475-2.335,7.917-0.456,10.934,1.709c1.766,1.31,2.79,3.018,3.872,4.67
	C303.188,46.701,304.326,49.491,303.474,52.281z M309.681,45.048c-0.171,1.937-1.481,3.645-2.733,5.067
	c0,0.058-0.114,0.058-0.172,0.058c0.342-1.595,0.626-3.416,0.797-5.125c-0.512-1.537-0.284-3.36-1.195-4.728l-0.171-0.569
	c-1.595-2.505-3.758-5.125-6.719-5.752c-1.311-0.112-2.449-0.625-3.816-0.625l-0.112-0.114c1.365-1.309,3.301-2.334,5.466-1.765
	c3.36,0.227,6.435,2.335,8.144,5.239C310.079,39.297,310.934,42.372,309.681,45.048z M314.691,34.228
	c-0.229,0.797-0.568,1.481-1.31,1.937c-0.911-1.652-1.537-3.758-3.417-5.012c-1.366-1.082-2.79-1.937-4.385-2.506
	c0.058-1.14,1.48-0.912,2.222-1.481c3.017-0.513,5.409,1.765,6.775,4.157C314.691,32.35,314.863,33.259,314.691,34.228z"/>
<path d="M268.62,35.594c-0.626-1.139-2.164-1.595-3.188-0.967c-3.588,2.164-5.694,5.866-8.258,8.941
	c-3.36,5.581-6.891,11.332-5.979,18.452c0.34,1.992,1.765,4.156,3.814,4.783c4.784,1.253,8.258-3.872,10.82-7.29
	c0.228-0.398,0.228-1.195-0.342-1.366c-1.594,1.366-3.304,3.36-5.638,2.278c-1.14-0.57-1.937-1.766-2.222-2.961
	c-0.341-1.197-0.169-2.507,0.798-3.361c3.188-3.246,6.721-6.093,10.023-9.226c0.284-1.252,1.024-2.562,0.683-3.987
	C269.759,39.239,269.418,37.075,268.62,35.594z M262.755,47.098c-1.141,2.051-3.131,3.873-5.013,5.41h-0.227
	c0.342-4.213,1.195-8.371,3.872-11.673c0.342-0.626,1.14-0.17,1.083,0.4C262.869,43.055,262.869,45.219,262.755,47.098z"/>
<path d="M191.284,35.936c-0.284-0.513-0.74-1.367-1.48-1.139c-3.19,1.708-4.897,5.125-6.55,7.973c-0.91,1.48-1.366,3.36-2.676,4.556
	l-0.114-0.113c0.455-3.019,2.335-5.582,1.938-8.885c-0.285-1.366-0.457-3.017-1.708-3.701c-0.854,0-1.481,0.512-2.222,0.796
	c-1.537,1.481-3.531,2.278-5.068,3.759c-0.455,0.513-1.196,1.025-1.767,0.912c0.058-1.88-0.112-3.873-1.706-5.069
	c-0.571-0.228-1.311-0.399-1.937-0.114c-3.645,2.107-6.095,5.923-8.486,9.17c-2.677,4.214-5.125,8.599-6.378,13.382
	c-1.025,0.912-1.936,2.107-3.189,2.392c-0.912-1.024-0.342-2.791-0.228-4.101c0.797-5.751,3.531-11.104,2.392-17.255
	c-0.626-1.31-1.196-3.36-2.961-3.588c-1.311,0.569-1.993,1.823-3.019,2.791c-3.588,3.701-5.239,8.258-8.03,12.187l-0.113-0.171
	c1.309-4.043,3.302-8.713,0.91-12.983c-0.512-0.741-1.309-1.823-2.221-1.765c-4.784,3.929-7.232,9.453-10.763,14.18l-0.228-0.228
	c1.025-3.247,2.107-6.892,1.196-10.535c-0.512-1.14-1.082-3.133-2.676-3.019l-6.321,6.151c-0.057,0.399,0.114,0.854,0.455,1.196
	c0.399,0.057,0.513-0.34,0.798-0.57c0.342-0.227,0.969-0.455,1.252,0.057c0.74,4.614-0.967,8.941-1.651,13.271l-4.157,4.212
	l-0.684,0.115c-0.228-0.172-0.455-0.342-0.455-0.626c0.057-3.931,1.139-7.632,2.05-11.277c0.854-4.043,2.563-9.966-1.424-12.984
	c-0.512-0.17-1.082-0.057-1.424,0.4c-3.814,3.701-7.004,7.972-9.112,12.527c-0.569,0.571-0.796,1.653-1.594,1.823
	c1.025-3.586,2.904-7.346,1.708-11.333c-0.456-1.423-1.253-3.36-2.904-3.587c-2.791,2.164-4.784,5.239-6.721,8.029
	c-1.423,2.05-2.277,4.556-4.328,6.209l-0.114-0.116c0.854-3.757,2.449-8.427,0.456-12.187c-0.342-0.626-1.083-1.765-1.879-1.65
	c-2.278,1.937-4.385,4.328-6.606,6.093l-0.17-0.227c0.228-1.708,0.399-3.417-0.456-4.954c-0.57-1.367-2.278-1.822-3.531-1.197
	c-3.304,2.905-6.093,6.095-8.372,9.625c-3.303,5.582-6.948,11.675-5.354,18.736c0.684,1.65,2.05,3.416,3.929,3.815
	c2.335,0.626,4.271-0.57,5.98-1.88c1.878-1.993,3.815-3.53,4.556-6.036c-0.057-0.342-0.114-0.741-0.626-0.627
	c-1.48,1.424-3.19,3.246-5.468,2.107c-1.708-1.025-2.392-2.962-2.278-4.898c3.246-4.213,7.631-7.346,11.276-11.219
	c-0.114-1.594,1.537-2.277,2.619-2.79c0.798,0.739,0.854,1.821,0.798,2.904c-0.969,7.403-2.733,14.466-4.044,21.696v1.083
	c1.937-0.284,4.044-0.74,6.265-0.684l0.341-0.283c-0.114-7.519,2.107-14.066,6.037-19.877c0.967-1.537,2.106-3.473,3.815-4.214
	c0.398,0.285,0.797,0.627,0.625,1.196c-1.024,7.917-3.872,15.036-4.897,22.896l0.17,0.569c1.994-0.285,4.044,0,6.037-0.285
	c0.456-5.581,2.05-10.706,4.1-15.66c1.765-3.076,3.189-6.492,6.093-8.885c0.342-0.17,0.854-0.112,0.969,0.342
	c-0.057,4.441-1.652,8.372-2.335,12.642c-0.74,3.931-1.252,8.6,1.538,11.73c0.342,0.229,0.741,0.229,1.083-0.113
	c2.164-2.789,4.727-6.035,7.745-8.2c-0.342,3.019-1.025,5.979-1.538,8.998l0.229,0.113c2.049-0.513,4.271-0.683,6.491-0.911
	c-0.113-7.745,2.221-14.693,6.435-20.785c0.969-1.254,1.823-2.848,3.304-3.417c0.398,0.169,0.512,0.512,0.683,0.911
	c-0.626,6.606-3.018,12.473-4.1,18.85c-0.286,1.595-0.685,3.305-0.513,4.898c1.766-0.286,3.815-0.114,5.751-0.171l0.285-0.172
	c0.911-8.485,3.246-16.344,8.258-23.063c0.626-0.684,1.253-1.482,2.164-1.539c0.854,0.742,0.343,2.05,0.171,2.961
	c-0.569,6.777-4.841,14.182-1.082,20.957c0.399,0.341,0.797,1.253,1.48,1.025c1.937-2.506,4.157-5.068,6.435-7.233
	c0.171-0.112,0.456-0.228,0.57,0c0.057,2.961,1.082,6.151,4.043,7.233c1.879,0.683,3.814,0,5.353-1.025
	c2.335-1.823,4.613-4.271,5.639-6.948c-0.057-0.228-0.228-0.569-0.513-0.626c-1.139,0.911-2.107,2.221-3.474,2.562
	c-1.082,0.172-2.05-0.169-2.904-0.739c-1.196-1.196-1.651-2.791-1.481-4.385c2.905-4.044,7.347-7.062,10.821-10.706
	c0-0.854,0.398-1.766,0.454-2.733c0.4-0.627,0.343-1.596,1.026-1.994l2.847,0.342c1.024,0.456,0.741,1.708,0.798,2.561
	c-0.968,8.315-3.702,15.891-6.322,23.465l0.172,0.341c1.994-0.854,4.385-0.341,6.604-0.57l0.514-0.398
	c1.195-5.752,2.563-11.503,4.612-16.972c1.139-1.879,1.708-4.555,4.101-5.238c1.48,0.114,0.512,2.392,1.879,2.221
	c1.652-0.91,3.132-2.79,4.328-4.214C192.252,40.151,191.854,37.758,191.284,35.936z M74.767,47.611
	c-1.31,1.822-2.905,3.872-4.84,5.012c-0.171-2.62,0.625-5.126,1.423-7.518c0.684-1.595,1.253-3.188,2.677-4.385
	c0.627-0.171,0.57,0.57,0.74,0.854C74.767,43.625,75.394,45.732,74.767,47.611z M164.86,47.611
	c-1.367,1.994-3.019,3.931-5.012,5.296c-0.285-1.253,0.17-2.448,0.398-3.644c0.854-2.792,1.537-5.696,3.361-8.088
	c0.512-0.74,1.139,0,1.195,0.569C164.803,43.682,165.372,45.732,164.86,47.611z"/>
<path d="M91.637,25.088h-1.452V14.989h1.452V25.088z"/>
<path d="M88.812,16.292h-3.495v8.795h-1.451v-8.795h-3.495v-1.303h8.44L88.812,16.292L88.812,16.292z"/>
<path d="M103.215,25.088h-1.244l-6.752-7.774v7.774h-1.362V14.989h1.155l6.842,7.818v-7.818h1.362V25.088z"/>
<path d="M114.287,24.392c-1.348,0.592-2.444,0.829-3.85,0.829c-3.094,0-5.375-2.162-5.375-5.123c0-2.976,2.34-5.241,5.42-5.241
	c1.184,0,2.013,0.193,3.598,0.858v1.466c-1.185-0.651-2.414-0.992-3.627-0.992c-2.191,0-3.895,1.673-3.895,3.865
	c0,2.251,1.688,3.835,4.087,3.835c0.784,0,1.495-0.177,2.191-0.4v-2.073h-1.94v-1.302h3.392L114.287,24.392L114.287,24.392z"/>
<path d="M128.173,20.068c-0.282,0.814-0.888,1.807-1.643,2.651l2.042,2.369h-1.864l-1.156-1.377c-1.259,1.14-2.28,1.51-3.199,1.51
	c-1.377,0-2.547-1.051-2.547-2.398c0-1.214,0.978-2.163,2.384-2.976c-0.592-0.622-1.14-1.481-1.14-2.339
	c0-1.407,1.021-2.326,2.59-2.326c1.422,0,2.429,0.963,2.429,2.192c0,0.977-0.548,1.776-1.851,2.694l1.421,1.628
	c0.416-0.414,0.859-1.125,1.081-1.628L128.173,20.068L128.173,20.068z M123.021,20.808c-1.126,0.71-1.762,1.229-1.762,2.014
	c0.044,0.578,0.593,1.066,1.244,1.066c0.741,0,1.466-0.489,2.162-1.184L123.021,20.808z M123.405,19.09
	c1.081-0.68,1.318-1.125,1.318-1.644c0-0.592-0.489-1.036-1.155-1.036c-0.623,0-1.096,0.415-1.096,0.962
	C122.473,17.996,122.976,18.676,123.405,19.09z"/>
<path d="M138.669,17.21c-0.859-0.814-1.689-1.052-2.369-1.052c-0.934,0-1.6,0.489-1.6,1.199c0,1.94,4.368,1.911,4.368,5.124
	c0,1.584-1.199,2.739-2.828,2.739c-1.096,0-1.984-0.296-2.828-0.933v-1.835c0.74,0.947,1.672,1.465,2.665,1.465
	c1.125,0,1.644-0.71,1.644-1.273c0-2.088-4.368-2.324-4.368-5.093c0-1.644,1.215-2.694,3.065-2.694c0.771,0,1.54,0.237,2.251,0.711
	V17.21z"/>
<path d="M145.861,12.976c0,0.755-0.622,1.377-1.377,1.377c-0.756,0-1.378-0.622-1.378-1.377s0.622-1.378,1.378-1.378
	C145.239,11.597,145.861,12.22,145.861,12.976z M143.669,12.976c0,0.444,0.37,0.814,0.814,0.814s0.814-0.371,0.814-0.814
	c0-0.444-0.37-0.815-0.814-0.815S143.669,12.531,143.669,12.976z M149.415,25.088h-1.481l-1.346-2.976h-4.294l-1.273,2.976h-1.481
	l4.338-10.158h1.023L149.415,25.088z M142.855,20.808h3.14l-1.629-3.657L142.855,20.808z"/>
<path d="M159.869,25.088h-1.245l-6.752-7.774v7.774h-1.362V14.989h1.155l6.841,7.818v-7.818h1.362L159.869,25.088L159.869,25.088z"
	/>
<path d="M169.667,16.292h-3.495v8.795h-1.45v-8.795h-3.494v-1.303h8.439V16.292L169.667,16.292z"/>
</svg>
