<?xml version="1.0"?><svg width="640" height="480" xmlns="http://www.w3.org/2000/svg">
 <title>My Pink Heart</title>

 <metadata id="metadata3547">image/svg+xml</metadata>
 <g>
  <title>Layer 1</title>
  <g id="layer1">
   <path d="m212.619003,23.642c-137.446907,-2.4711 -264.638405,212.481001 105.92601,435.341002c0.405975,-0.730988 1.968994,-0.730988 2.375,0c382.517975,-230.048996 234.665009,-451.640422 92.625977,-434.390902c-55.372986,6.724501 -81.503998,37.456499 -93.813995,63.888002c-12.30899,-26.431503 -38.440002,-57.163502 -93.812988,-63.888002c-4.438004,-0.539301 -8.866013,-0.870199 -13.300003,-0.949999l0,-0.000101z" id="path2361" stroke-miterlimit="4" stroke-linejoin="round" stroke-width="3.799726" stroke="#ff005c" fill-rule="evenodd" fill="#ff005c"/>
   <polyline id="svg_1" points="1087,136 1111,144 1112,144 1113,144 1114,144 1129,148 1130,148 1138,148 1139,148 1153,147 1171,146 1172,146 1196,143 1201,143 " opacity="0.5" stroke-linecap="round" stroke-linejoin="round" stroke-width="3.799726" stroke="#ff007f" fill="none"/>
  </g>
  <polyline id="svg_2" points="-115,206 -115,205 " stroke-linecap="round" stroke-linejoin="round" stroke-width="3.799726" stroke="#ff005c" fill="none"/>
 </g>
</svg>